<svg id="Laag_1" xmlns="http://www.w3.org/2000/svg" xmlns:xlink="http://www.w3.org/1999/xlink" width="230.4" height="73" viewBox="0 0 230.4 73" style="enable-background:new 0 0 230.4 73;"><style>.st0{fill:#999999;}
.st1{fill:#E4170E;}
.st2{fill:#FFFFFF;}</style><g><g><polygon class="st0" points="0,35.8 26.1,35.8 37.5,10.6 0,10.6"/></g><g><polygon class="st0" points="63.6,10.6 74.3,36.5 156.8,36.5 170.1,70.4 175.7,60 180.7,66.8 186.4,56.4 191.6,63.3 203.8,36.5 230.4,36.6 230.4,10.6"/></g></g><g><g><path class="st1" d="M59 2.6s-3.2 5.7-4.6 8.3c-1.5-2.1-5.2-7.5-5.2-7.5s-4.3 8-5.7 10.6c-1.5-2-5.3-7.1-5.3-7.1S26.8 33.5 26.1 35.1H0v2.8h27.9s9.3-21.6 10.9-25.4c1.5 2 5 6.7 5 6.7s4.2-7.8 5.6-10.4c1.5 2.1 5.1 7.4 5.1 7.4s3.7-6.7 5.4-9.7c1.8 4.7 12.3 31.3 12.3 31.3h81.5s1.3.0 2.2.0c.7 1.7 13.8 35.1 13.8 35.1s4.6-8.3 6.1-10.9c1.5 2.1 5.2 7.5 5.2 7.5s4.3-8 5.7-10.6c1.5 2 5.3 7.1 5.3 7.1s11.4-26.6 12.1-28.2h26.1V35h-28s-9.3 21.6-10.9 25.4c-1.5-2-5-6.7-5-6.7s-4.2 7.8-5.6 10.4c-1.5-2.1-5.1-7.4-5.1-7.4s-3.7 6.7-5.4 9.6c-1.8-4.7-12.3-31.3-12.3-31.3h-4.2s-70.6.0-79.6.0C73.6 33.4 60.4.0 60.4.0L59 2.6z"/></g><path class="st2" d="M89.6 20.3c-.6-2-2.1-3.1-4.2-3.1-3.1.0-5.1 2.4-5.1 6.1.0 3.6 2.2 6.1 5.1 6.1 2.5.0 4.4-1.8 4.4-4.4h-2.6v-1.4h4.4v7h-1.4l-.1-2.3c-.9 1.8-2.6 2.7-4.8 2.7-1.7.0-3.1-.5-4.3-1.4-1.8-1.5-2.8-3.7-2.8-6.3.0-1.7.4-3.2 1.2-4.4 1.4-2.1 3.4-3.2 5.9-3.2 3.2.0 5.5 1.8 6.2 4.8H89.6z"/><path class="st2" d="M100.2 16c3.3.0 5 1.4 5 3.8.0 1.8-1.1 3.1-2.8 3.3v.1c1.8.1 2.5.9 2.5 2.8.0.4.0.6.0.8.0 1.8.1 3 .8 3.8h-2.2c-.4-.7-.5-1.4-.5-2.3V27c0-2.1-.3-2.8-2.3-2.8h-4.3v6.4h-1.8V16H100.2zm-3.7 6.5h3.7c2.2.0 3.2-.9 3.2-2.5.0-1.5-1.1-2.4-3.2-2.4h-3.7v4.9z"/><path class="st2" d="M119.2 17.3c1.6 1.5 2.4 3.5 2.4 5.9.0 2.2-.8 4.2-2.1 5.6-1.3 1.4-2.9 2.1-4.9 2.1s-3.8-.8-5.1-2.2c-1.4-1.5-2-3.3-2-5.5.0-2.3.7-4 2.1-5.5 1.2-1.3 3.1-2.1 5-2.1C116.4 15.6 118 16.2 119.2 17.3m-9.7 5.9c0 3.7 2.1 6 5 6s5-2.4 5-6-2.2-6.1-5-6.1C111.7 17.2 109.5 19.6 109.5 23.2"/><polygon class="st2" points="126.5,16 134.6,27.8 134.7,27.7 134.7,16 136.5,16 136.5,30.5 134.4,30.5 126.2,18.5 126.1,18.5 126.2,30.5 124.3,30.5 124.3,16"/><path class="st2" d="M144.8 16c5.1.0 7.9 2.6 7.9 7.3.0 4.5-2.9 7.2-7.6 7.2H140V16H144.8zm-3 12.8h2.9c3.9.0 6-1.9 6-5.6s-2.1-5.6-6-5.6h-2.9V28.8z"/><path class="st2" d="M84 43.7c3 0 4.5 1.2 4.5 3.4.0 1.4-.7 2.4-2.1 2.9h0c1.9.3 3.1 1.6 3.1 3.5.0 3-1.8 4-5.7 4h-5V43.7H84zm-3.5 5.8H84c2 0 2.9-.6 2.9-2 0-1.6-1-2.2-3.2-2.2h-3.1v4.2zm0 6.5h3.8c2.3.0 3.4-.8 3.4-2.5S86.6 51 84.3 51h-3.8v5z"/><path class="st2" d="M98.2 43.7l5.6 13.8h-1.9l-1.2-3.1h-6.9l-1.2 3.1h-1.9l5.6-13.8H98.2zM94.3 52.9h5.8l-2.9-7.4h-.1l-2.8 7.4z"/><polygon class="st2" points="107.3,43.7 107.3,55.9 114.3,55.9 114.3,57.5 105.5,57.5 105.5,43.7"/><path class="st2" d="M122.7 43.7l5.6 13.8h-1.9l-1.2-3.1h-6.9l-1.2 3.1h-1.9l5.6-13.8H122.7zm-3.8 9.2h5.8l-2.9-7.4h-.1l-2.8 7.4z"/><polygon class="st2" points="132,43.7 139.8,55 139.8,54.9 139.8,43.7 141.6,43.7 141.6,57.5 139.5,57.5 131.7,46.1 131.6,46.1 131.7,57.5 130,57.5 130,43.7"/><path class="st2" d="M153.2 47.4c-.1-1.6-1.4-2.6-3.4-2.6-1.9.0-3.3 1-3.3 2.3.0 1.5.9 1.9 3 2.4 1.6.3 3 .6 4.1 1.3 1 .7 1.6 1.6 1.6 2.7.0 2.4-2.1 4.4-5.4 4.4-3.5.0-5.6-1.7-5.7-4.6h1.9c0 1.9 1.4 3.1 3.7 3.1 2.1.0 3.5-1.2 3.5-2.6.0-.6-.3-1.1-.8-1.6-.7-.6-1.9-.8-3.5-1.1-3-.7-4.5-1.7-4.5-3.7.0-2.3 2-4 5.3-4 3.2.0 5.1 1.5 5.3 4.1H153.2z"/></g></svg>