<?xml version="1.0" encoding="utf-8"?>
<!-- Generator: Adobe Illustrator 25.0.1, SVG Export Plug-In . SVG Version: 6.00 Build 0)  -->
<svg version="1.1" id="Layer_1" xmlns="http://www.w3.org/2000/svg" xmlns:xlink="http://www.w3.org/1999/xlink" x="0px" y="0px"
	 viewBox="0 0 997.4 713.4" style="enable-background:new 0 0 997.4 713.4;" xml:space="preserve">
<style type="text/css">
	.st0{fill:#A3A3A3;}
	.st1{fill:#4A4948;}
</style>
<path class="st0" d="M341.2,680.3c2.3-2.4,4.5-5.1,6.7-7.9c4.3-5.6,7.5-11.2,10-16.5l52.9,24.3L341.2,680.3L341.2,680.3z
	 M145.3,655.7c2.4,5.3,5.6,10.9,9.8,16.6c2.1,2.8,4.3,5.5,6.7,8H92L145.3,655.7z M352.8,384.6v92.7c0,56-45.5,101.5-101.5,101.5
	s-101.5-45.5-101.5-101.5v-92.7H352.8z M128.8,334.3c0-33.3,13.3-63.5,34.9-85.6v26.8c0,9.2,7.4,16.5,16.5,16.5
	c9.2,0,16.5-7.4,16.5-16.5v-51c11.7-5.9,24.5-9.9,37.9-11.7v83.1c0,9.2,7.4,16.5,16.5,16.5c9.2,0,16.5-7.4,16.5-16.5v-82.9
	c13.5,1.8,26.3,5.9,38,11.7v51c0,9.2,7.4,16.5,16.5,16.5s16.5-7.4,16.5-16.5v-26.8c21.6,22.1,34.9,52.3,34.9,85.5v17.1H128.8V334.3z
	 M182.6,653.7c-6.7-8.7-9.7-17.5-10.9-22.7c3.2-6.7,5-14.1,5-21.6v-20.2c21.4,14.3,47.1,22.7,74.6,22.7s53.3-8.4,74.6-22.7v20.2
	c0,8,1.9,15.7,5.5,22.6c-1.4,5.2-4.5,13.6-10.9,21.7c-14,17.7-37.3,26.6-69.2,26.6C219.5,680.3,196.4,671.4,182.6,653.7
	 M492.9,681.8l-124.3-57.3c-5.9-2.7-9.6-8.6-9.6-15v-51.6c16.9-22.5,26.8-50.4,26.8-80.6v-92.7h34.9c9.2,0,16.5-7.4,16.5-16.5
	s-7.4-16.5-16.5-16.5h-13.9v-17.2c0-53.3-27-100.5-68-128.6v-10.5c0-9.2-7.4-16.5-16.5-16.5c-6.9,0-12.9,4.3-15.3,10.4
	c-12.4-4.7-25.5-8-39.2-9.5v-14.6c0-9.2-7.4-16.5-16.5-16.5c-9.2,0-16.5,7.4-16.5,16.5v14.6c-13.7,1.4-26.8,4.7-39.2,9.5
	c-2.5-6-8.4-10.4-15.3-10.4c-9.2,0-16.5,7.4-16.5,16.5v10.5c-41,28-68,75.3-68,128.6v17.1H81.7c-9.2,0-16.5,7.4-16.5,16.5
	c0,9.2,7.4,16.5,16.5,16.5h34.9v92.8c0,30.2,10,58.2,26.9,80.6v51.6c0,6.4-3.8,12.4-9.6,15L9.6,681.8c-7.1,3.3-10.9,11-9.2,18.6
	c1.7,7.6,8.4,13,16.1,13h469.4c7.8,0,14.5-5.4,16.1-13C503.8,692.8,500,685,492.9,681.8"/>
<path class="st1" d="M793.8,671.6c2.9-3,5.7-6.4,8.4-9.9c5.4-7.1,9.4-14.2,12.6-20.9l66.7,30.7h-87.7V671.6z M546.4,640.6
	c3,6.7,7.1,13.8,12.4,21c2.6,3.5,5.5,6.9,8.4,10h-88L546.4,640.6z M808.5,298.2v117c0,70.7-57.5,128.2-128.2,128.2
	s-128.2-57.5-128.2-128.2v-117H808.5z M525.6,234.8c0-42,16.8-80.1,44.1-108.1v33.9c0,11.6,9.3,20.9,20.9,20.9s20.9-9.3,20.9-20.9
	V96.1c14.8-7.4,30.9-12.5,47.9-14.8v104.9c0,11.6,9.3,20.9,20.9,20.9s20.9-9.3,20.9-20.9V81.5c17,2.3,33.2,7.4,48,14.8v64.4
	c0,11.6,9.3,20.9,20.9,20.9s20.9-9.3,20.9-20.9v-33.9c27.3,27.9,44.1,66,44.1,108v21.6H525.6V234.8z M593.5,638.1
	c-8.5-11-12.3-22.1-13.8-28.6c4.1-8.4,6.3-17.7,6.3-27.3v-25.6c27,18.1,59.4,28.6,94.2,28.6s67.2-10.5,94.2-28.6v25.6
	c0,10,2.4,19.8,6.9,28.5c-1.8,6.6-5.7,17.1-13.8,27.4c-17.6,22.3-47.1,33.6-87.3,33.6C640.1,671.6,610.9,660.4,593.5,638.1
	 M985.3,673.5l-156.9-72.4c-7.4-3.4-12.2-10.9-12.2-19v-65.1c21.3-28.4,33.9-63.7,33.9-101.8v-117h44.1c11.6,0,20.9-9.3,20.9-20.9
	c0-11.6-9.3-20.9-20.9-20.9h-17.5v-21.7c0-67.3-34.1-126.9-85.9-162.4V59.1c0-11.6-9.3-20.9-20.9-20.9c-8.7,0-16.2,5.4-19.4,13.1
	c-15.6-6-32.2-10-49.5-12V20.9c0-11.6-9.3-20.9-20.9-20.9s-20.9,9.3-20.9,20.9v18.5c-17.2,1.8-33.9,5.9-49.5,12
	c-3.1-7.6-10.6-13.1-19.4-13.1c-11.6,0-20.9,9.3-20.9,20.9v13.3c-51.8,35.4-85.9,95-85.9,162.4v21.6h-17.5
	c-11.6,0-20.9,9.3-20.9,20.9c0,11.6,9.3,20.9,20.9,20.9h44.1v117.1c0,38.1,12.7,73.4,34,101.8v65.1c0,8.1-4.8,15.6-12.2,19
	l-156.9,72.4c-8.9,4.2-13.8,13.9-11.7,23.4c2.1,9.5,10.5,16.4,20.4,16.4h592.6c9.8,0,18.4-6.8,20.4-16.4
	C999.1,687.3,994.3,677.6,985.3,673.5"/>
</svg>
